<svg width="60" height="60" viewBox="0 0 60 60" fill="none" xmlns="http://www.w3.org/2000/svg">
<rect x="0.5" y="0.5" width="59" height="59" rx="7.5" stroke="#E9E9E9"/>
<g clip-path="url(#clip0_108_7045)">
<path d="M35 33.245V40.117C35 40.2054 34.9766 40.2923 34.932 40.3688C34.8875 40.4452 34.8235 40.5085 34.7465 40.5521C34.6696 40.5957 34.5824 40.6181 34.4939 40.617C34.4055 40.616 34.3189 40.5914 34.243 40.546L30 38L25.757 40.546C25.681 40.5915 25.5944 40.616 25.5058 40.617C25.4173 40.6181 25.33 40.5956 25.253 40.5518C25.176 40.5081 25.112 40.4447 25.0676 40.3681C25.0231 40.2915 24.9998 40.2045 25 40.116V33.246C23.7061 32.2101 22.766 30.7979 22.3095 29.2045C21.8529 27.6112 21.9026 25.9154 22.4515 24.3514C23.0004 22.7875 24.0216 21.4327 25.3738 20.4743C26.726 19.5158 28.3425 19.001 30 19.001C31.6575 19.001 33.274 19.5158 34.6262 20.4743C35.9784 21.4327 36.9996 22.7875 37.5485 24.3514C38.0974 25.9154 38.1471 27.6112 37.6905 29.2045C37.234 30.7979 36.2939 32.2101 35 33.246V33.245ZM27 34.418V37.468L30 35.668L33 37.468V34.418C32.0468 34.8035 31.0282 35.0011 30 35C28.9718 35.0011 27.9532 34.8035 27 34.418ZM30 33C31.5913 33 33.1174 32.3678 34.2426 31.2426C35.3679 30.1174 36 28.5913 36 27C36 25.4087 35.3679 23.8826 34.2426 22.7573C33.1174 21.6321 31.5913 21 30 21C28.4087 21 26.8826 21.6321 25.7574 22.7573C24.6321 23.8826 24 25.4087 24 27C24 28.5913 24.6321 30.1174 25.7574 31.2426C26.8826 32.3678 28.4087 33 30 33Z" fill="#161616"/>
</g>
<defs>
<clipPath id="clip0_108_7045">
<rect width="24" height="24" fill="white" transform="translate(18 18)"/>
</clipPath>
</defs>
</svg>
